<?xml version="1.0" encoding="utf-8"?>
<svg xmlns="http://www.w3.org/2000/svg" xmlns:xlink="http://www.w3.org/1999/xlink" width="600" height="400" viewBox="0 0 2400 1600">
<defs>
  <clipPath id="clip570">
    <rect x="0" y="0" width="2400" height="1600"/>
  </clipPath>
</defs>
<path clip-path="url(#clip570)" d="M0 1600 L2400 1600 L2400 0 L0 0  Z" fill="#ffffff" fill-rule="evenodd" fill-opacity="1"/>
<defs>
  <clipPath id="clip571">
    <rect x="480" y="0" width="1681" height="1600"/>
  </clipPath>
</defs>
<path clip-path="url(#clip570)" d="M296.693 1552.76 L2103.31 1552.76 L2103.31 47.2441 L296.693 47.2441  Z" fill="#ffffff" fill-rule="evenodd" fill-opacity="1"/>
<defs>
  <clipPath id="clip572">
    <rect x="296" y="47" width="1808" height="1507"/>
  </clipPath>
</defs>
<polyline clip-path="url(#clip572)" style="stroke:#009af9; stroke-linecap:round; stroke-linejoin:round; stroke-width:8; stroke-opacity:1; fill:none" points="1200,1552.76 898.898,950.551 "/>
<polyline clip-path="url(#clip572)" style="stroke:#009af9; stroke-linecap:round; stroke-linejoin:round; stroke-width:8; stroke-opacity:1; fill:none" points="898.898,990.8 898.898,950.551 931.097,974.701 "/>
<polyline clip-path="url(#clip572)" style="stroke:#009af9; stroke-linecap:round; stroke-linejoin:round; stroke-width:8; stroke-opacity:1; fill:none" points="898.898,950.551 1200,1552.76 "/>
<polyline clip-path="url(#clip572)" style="stroke:#e26f46; stroke-linecap:round; stroke-linejoin:round; stroke-width:8; stroke-opacity:1; fill:none" points="1200,1552.76 1802.2,649.449 "/>
<polyline clip-path="url(#clip572)" style="stroke:#e26f46; stroke-linecap:round; stroke-linejoin:round; stroke-width:8; stroke-opacity:1; fill:none" points="1767.26,669.418 1802.2,649.449 1797.21,689.387 "/>
<polyline clip-path="url(#clip572)" style="stroke:#e26f46; stroke-linecap:round; stroke-linejoin:round; stroke-width:8; stroke-opacity:1; fill:none" points="1802.2,649.449 1200,1552.76 "/>
<polyline clip-path="url(#clip572)" style="stroke:#3da44d; stroke-linecap:round; stroke-linejoin:round; stroke-width:8; stroke-opacity:1; fill:none" points="1200,1552.76 1501.1,47.2441 "/>
<polyline clip-path="url(#clip572)" style="stroke:#3da44d; stroke-linecap:round; stroke-linejoin:round; stroke-width:8; stroke-opacity:1; fill:none" points="1476.39,79.0149 1501.1,47.2441 1511.69,86.0751 "/>
<polyline clip-path="url(#clip572)" style="stroke:#3da44d; stroke-linecap:round; stroke-linejoin:round; stroke-width:8; stroke-opacity:1; fill:none" points="1501.1,47.2441 1200,1552.76 "/>
<polyline clip-path="url(#clip572)" style="stroke:#009af9; stroke-linecap:round; stroke-linejoin:round; stroke-width:8; stroke-opacity:1; fill:none" stroke-dasharray="32, 20" points="1802.2,649.449 1501.1,47.2441 "/>
<polyline clip-path="url(#clip572)" style="stroke:#e26f46; stroke-linecap:round; stroke-linejoin:round; stroke-width:8; stroke-opacity:1; fill:none" stroke-dasharray="32, 20" points="898.898,950.551 1501.1,47.2441 "/>
<path clip-path="url(#clip570)" d="M1037.38 1328.32 Q1037.38 1330.62 1035.94 1331.93 Q1034.51 1333.2 1032.87 1333.2 Q1031.31 1333.2 1030.49 1332.3 Q1029.67 1331.4 1029.67 1330.25 Q1029.67 1328.69 1030.82 1327.34 Q1031.97 1325.98 1033.69 1325.7 Q1032.01 1324.63 1029.51 1324.63 Q1027.87 1324.63 1026.43 1325.49 Q1025.04 1326.35 1024.18 1327.46 Q1023.36 1328.57 1022.62 1330.17 Q1021.93 1331.72 1021.64 1332.67 Q1021.39 1333.57 1021.19 1334.55 L1018.32 1346.03 Q1016.93 1351.48 1016.93 1353.41 Q1016.93 1355.78 1018.07 1357.38 Q1019.22 1358.94 1021.52 1358.94 Q1022.42 1358.94 1023.44 1358.69 Q1024.47 1358.41 1025.78 1357.67 Q1027.13 1356.89 1028.32 1355.74 Q1029.55 1354.55 1030.74 1352.55 Q1031.93 1350.54 1032.71 1347.95 Q1032.95 1347.05 1033.77 1347.05 Q1034.8 1347.05 1034.8 1347.87 Q1034.8 1348.57 1034.22 1350.05 Q1033.69 1351.48 1032.5 1353.37 Q1031.35 1355.21 1029.84 1356.89 Q1028.32 1358.53 1026.07 1359.68 Q1023.81 1360.83 1021.35 1360.83 Q1017.83 1360.83 1015.49 1358.94 Q1013.15 1357.05 1012.29 1354.43 Q1012.09 1354.8 1011.8 1355.29 Q1011.51 1355.78 1010.65 1356.89 Q1009.83 1357.96 1008.89 1358.78 Q1007.95 1359.55 1006.47 1360.17 Q1005.04 1360.83 1003.48 1360.83 Q1001.51 1360.83 999.751 1360.25 Q998.029 1359.68 996.799 1358.37 Q995.57 1357.05 995.57 1355.25 Q995.57 1353.24 996.922 1351.85 Q998.316 1350.41 1000.2 1350.41 Q1001.39 1350.41 1002.33 1351.11 Q1003.32 1351.81 1003.32 1353.32 Q1003.32 1355 1002.17 1356.28 Q1001.02 1357.55 999.382 1357.87 Q1001.06 1358.94 1003.56 1358.94 Q1006.27 1358.94 1008.4 1356.56 Q1010.53 1354.19 1011.56 1350.21 Q1014.1 1340.66 1015.08 1336.4 Q1016.06 1332.09 1016.06 1330.25 Q1016.06 1328.53 1015.61 1327.34 Q1015.16 1326.15 1014.38 1325.62 Q1013.65 1325.04 1012.95 1324.84 Q1012.29 1324.63 1011.56 1324.63 Q1010.33 1324.63 1008.93 1325.12 Q1007.58 1325.62 1005.94 1326.76 Q1004.34 1327.87 1002.82 1330.17 Q1001.31 1332.46 1000.28 1335.62 Q1000.08 1336.56 999.177 1336.56 Q998.193 1336.52 998.193 1335.7 Q998.193 1335 998.726 1333.57 Q999.3 1332.09 1000.45 1330.25 Q1001.64 1328.4 1003.15 1326.76 Q1004.71 1325.08 1006.96 1323.94 Q1009.26 1322.79 1011.72 1322.79 Q1012.83 1322.79 1013.89 1323.03 Q1015 1323.24 1016.31 1323.85 Q1017.66 1324.47 1018.85 1325.82 Q1020.04 1327.17 1020.78 1329.14 Q1021.27 1328.2 1021.93 1327.3 Q1022.62 1326.39 1023.69 1325.29 Q1024.79 1324.14 1026.31 1323.48 Q1027.87 1322.79 1029.59 1322.79 Q1031.27 1322.79 1032.91 1323.24 Q1034.55 1323.65 1035.94 1325 Q1037.38 1326.31 1037.38 1328.32 Z" fill="#000000" fill-rule="nonzero" fill-opacity="1" /><path clip-path="url(#clip570)" d="M1519.48 1242.65 Q1519.48 1243.23 1519.11 1244.58 L1511.08 1276.63 Q1509.31 1283.77 1503.57 1288.77 Q1497.88 1293.77 1491.4 1293.77 Q1487.51 1293.77 1485.01 1291.68 Q1482.51 1289.63 1482.51 1286.47 Q1482.51 1283.68 1483.98 1282.33 Q1485.46 1281.02 1487.22 1281.02 Q1487.79 1281.02 1488.41 1281.18 Q1489.02 1281.35 1489.68 1282.04 Q1490.33 1282.74 1490.33 1283.93 Q1490.33 1285.86 1488.65 1287.37 Q1487.83 1288.07 1487.06 1288.23 Q1486.32 1288.4 1485.05 1288.4 Q1485.54 1289.55 1486.44 1290.32 Q1487.34 1291.1 1488.37 1291.39 Q1489.39 1291.72 1490.05 1291.8 Q1490.74 1291.92 1491.4 1291.92 Q1496.65 1291.92 1500.66 1286.64 Q1501.85 1285.04 1502.71 1283.44 Q1503.62 1281.88 1504.27 1279.95 Q1504.93 1278.07 1505.21 1277.04 Q1505.54 1276.02 1506.12 1273.68 Q1502.3 1277.5 1497.63 1277.5 Q1495.66 1277.5 1493.9 1276.96 Q1492.18 1276.43 1490.66 1275.32 Q1489.15 1274.18 1488.24 1272.17 Q1487.38 1270.16 1487.38 1267.49 Q1487.38 1264.67 1488.49 1260.81 Q1489.6 1256.96 1492.26 1249.87 Q1493.7 1245.89 1493.7 1243.97 Q1493.7 1243.02 1493.49 1242.45 Q1493.29 1241.83 1492.88 1241.63 Q1492.47 1241.38 1492.22 1241.34 Q1492.02 1241.3 1491.61 1241.3 Q1489.19 1241.3 1486.93 1243.76 Q1484.68 1246.22 1483.12 1251.71 Q1482.79 1252.74 1482.59 1252.98 Q1482.38 1253.23 1481.77 1253.23 Q1480.74 1253.19 1480.74 1252.37 Q1480.74 1252.04 1481.11 1250.77 Q1481.48 1249.46 1482.34 1247.53 Q1483.24 1245.56 1484.47 1243.8 Q1485.7 1242 1487.63 1240.73 Q1489.6 1239.46 1491.85 1239.46 Q1494.93 1239.46 1496.81 1241.47 Q1498.74 1243.43 1498.74 1246.34 Q1498.74 1247.53 1498.41 1248.6 Q1498.12 1249.62 1497.06 1252.37 Q1492.75 1263.44 1492.75 1268.85 Q1492.75 1270.16 1492.96 1271.26 Q1493.2 1272.33 1493.74 1273.4 Q1494.27 1274.42 1495.34 1275.04 Q1496.44 1275.61 1497.96 1275.61 Q1499.89 1275.61 1501.69 1274.71 Q1503.53 1273.77 1504.68 1272.49 Q1505.87 1271.22 1506.57 1270.16 Q1507.3 1269.05 1507.47 1268.48 L1511.24 1253.39 L1512.92 1246.67 Q1513.7 1243.02 1514.07 1242.12 Q1514.56 1241.26 1515.42 1240.81 Q1516.28 1240.36 1517.02 1240.36 Q1518.04 1240.36 1518.74 1240.97 Q1519.48 1241.59 1519.48 1242.65 Z" fill="#000000" fill-rule="nonzero" fill-opacity="1" /><path clip-path="url(#clip570)" d="M1096.89 844.292 Q1096.89 846.587 1095.46 847.899 Q1094.02 849.169 1092.38 849.169 Q1090.82 849.169 1090 848.268 Q1089.18 847.366 1089.18 846.218 Q1089.18 844.66 1090.33 843.308 Q1091.48 841.955 1093.2 841.668 Q1091.52 840.603 1089.02 840.603 Q1087.38 840.603 1085.95 841.463 Q1084.55 842.324 1083.69 843.431 Q1082.87 844.537 1082.13 846.136 Q1081.44 847.694 1081.15 848.636 Q1080.9 849.538 1080.7 850.522 L1077.83 861.999 Q1076.44 867.45 1076.44 869.377 Q1076.44 871.754 1077.58 873.353 Q1078.73 874.911 1081.03 874.911 Q1081.93 874.911 1082.95 874.665 Q1083.98 874.378 1085.29 873.64 Q1086.64 872.861 1087.83 871.713 Q1089.06 870.525 1090.25 868.516 Q1091.44 866.508 1092.22 863.925 Q1092.46 863.024 1093.28 863.024 Q1094.31 863.024 1094.31 863.843 Q1094.31 864.54 1093.73 866.016 Q1093.2 867.45 1092.01 869.336 Q1090.87 871.181 1089.35 872.861 Q1087.83 874.501 1085.58 875.648 Q1083.32 876.796 1080.86 876.796 Q1077.34 876.796 1075 874.911 Q1072.67 873.025 1071.81 870.402 Q1071.6 870.771 1071.31 871.262 Q1071.03 871.754 1070.17 872.861 Q1069.35 873.927 1068.4 874.747 Q1067.46 875.525 1065.98 876.14 Q1064.55 876.796 1062.99 876.796 Q1061.03 876.796 1059.26 876.222 Q1057.54 875.648 1056.31 874.337 Q1055.08 873.025 1055.08 871.221 Q1055.08 869.213 1056.43 867.819 Q1057.83 866.385 1059.71 866.385 Q1060.9 866.385 1061.84 867.082 Q1062.83 867.778 1062.83 869.295 Q1062.83 870.976 1061.68 872.246 Q1060.53 873.517 1058.89 873.845 Q1060.57 874.911 1063.07 874.911 Q1065.78 874.911 1067.91 872.533 Q1070.04 870.156 1071.07 866.18 Q1073.61 856.629 1074.59 852.366 Q1075.58 848.063 1075.58 846.218 Q1075.58 844.496 1075.13 843.308 Q1074.67 842.119 1073.9 841.586 Q1073.16 841.012 1072.46 840.807 Q1071.81 840.603 1071.07 840.603 Q1069.84 840.603 1068.44 841.094 Q1067.09 841.586 1065.45 842.734 Q1063.85 843.841 1062.34 846.136 Q1060.82 848.431 1059.8 851.588 Q1059.59 852.53 1058.69 852.53 Q1057.7 852.489 1057.7 851.67 Q1057.7 850.973 1058.24 849.538 Q1058.81 848.063 1059.96 846.218 Q1061.15 844.374 1062.66 842.734 Q1064.22 841.053 1066.48 839.906 Q1068.77 838.758 1071.23 838.758 Q1072.34 838.758 1073.4 839.004 Q1074.51 839.209 1075.82 839.824 Q1077.17 840.439 1078.36 841.791 Q1079.55 843.144 1080.29 845.111 Q1080.78 844.169 1081.44 843.267 Q1082.13 842.365 1083.2 841.258 Q1084.31 840.111 1085.82 839.455 Q1087.38 838.758 1089.1 838.758 Q1090.78 838.758 1092.42 839.209 Q1094.06 839.619 1095.46 840.971 Q1096.89 842.283 1096.89 844.292 Z" fill="#000000" fill-rule="nonzero" fill-opacity="1" /><path clip-path="url(#clip570)" d="M1127.84 855.892 Q1125.91 855.892 1125.91 854.867 Q1125.91 853.842 1127.92 853.842 Q1128.16 853.842 1128.57 853.883 Q1129.03 853.924 1129.11 853.924 L1152.76 853.924 L1152.76 830.191 Q1152.76 830.109 1152.72 829.74 Q1152.68 829.33 1152.68 829.085 Q1152.68 827.076 1153.66 827.076 Q1154.68 827.076 1154.68 829.085 L1154.68 853.924 L1178.38 853.924 Q1178.46 853.924 1178.87 853.883 Q1179.28 853.842 1179.52 853.842 Q1181.45 853.842 1181.45 854.867 Q1181.49 855.892 1179.44 855.892 Q1179.2 855.892 1178.83 855.851 Q1178.46 855.81 1178.38 855.81 L1154.68 855.81 L1154.68 880.731 Q1154.68 882.658 1153.66 882.658 Q1152.68 882.658 1152.68 880.649 Q1152.68 880.403 1152.72 879.993 Q1152.76 879.624 1152.76 879.542 L1152.76 855.81 L1129.11 855.81 Q1129.03 855.81 1128.53 855.851 Q1128.08 855.892 1127.84 855.892 Z" fill="#000000" fill-rule="nonzero" fill-opacity="1" /><path clip-path="url(#clip570)" d="M1252.6 841.955 Q1252.6 842.529 1252.24 843.882 L1244.2 875.935 Q1242.44 883.067 1236.7 888.068 Q1231 893.069 1224.53 893.069 Q1220.63 893.069 1218.13 890.978 Q1215.63 888.929 1215.63 885.773 Q1215.63 882.985 1217.11 881.633 Q1218.58 880.321 1220.35 880.321 Q1220.92 880.321 1221.53 880.485 Q1222.15 880.649 1222.81 881.346 Q1223.46 882.043 1223.46 883.231 Q1223.46 885.158 1221.78 886.674 Q1220.96 887.371 1220.18 887.535 Q1219.44 887.699 1218.17 887.699 Q1218.67 888.847 1219.57 889.626 Q1220.47 890.404 1221.49 890.691 Q1222.52 891.019 1223.17 891.101 Q1223.87 891.224 1224.53 891.224 Q1229.77 891.224 1233.79 885.937 Q1234.98 884.338 1235.84 882.739 Q1236.74 881.182 1237.4 879.255 Q1238.05 877.37 1238.34 876.345 Q1238.67 875.32 1239.24 872.984 Q1235.43 876.796 1230.76 876.796 Q1228.79 876.796 1227.03 876.263 Q1225.31 875.73 1223.79 874.624 Q1222.27 873.476 1221.37 871.467 Q1220.51 869.459 1220.51 866.795 Q1220.51 863.966 1221.62 860.113 Q1222.72 856.26 1225.39 849.169 Q1226.82 845.193 1226.82 843.267 Q1226.82 842.324 1226.62 841.75 Q1226.41 841.135 1226 840.93 Q1225.59 840.684 1225.35 840.643 Q1225.14 840.603 1224.73 840.603 Q1222.31 840.603 1220.06 843.062 Q1217.8 845.521 1216.25 851.014 Q1215.92 852.039 1215.71 852.284 Q1215.51 852.53 1214.89 852.53 Q1213.87 852.489 1213.87 851.67 Q1213.87 851.342 1214.24 850.071 Q1214.61 848.759 1215.47 846.833 Q1216.37 844.865 1217.6 843.103 Q1218.83 841.299 1220.76 840.029 Q1222.72 838.758 1224.98 838.758 Q1228.05 838.758 1229.94 840.766 Q1231.86 842.734 1231.86 845.644 Q1231.86 846.833 1231.54 847.899 Q1231.25 848.923 1230.18 851.67 Q1225.88 862.737 1225.88 868.147 Q1225.88 869.459 1226.08 870.566 Q1226.33 871.631 1226.86 872.697 Q1227.4 873.722 1228.46 874.337 Q1229.57 874.911 1231.09 874.911 Q1233.01 874.911 1234.82 874.009 Q1236.66 873.066 1237.81 871.795 Q1239 870.525 1239.69 869.459 Q1240.43 868.352 1240.59 867.778 L1244.37 852.694 L1246.05 845.972 Q1246.83 842.324 1247.19 841.422 Q1247.69 840.562 1248.55 840.111 Q1249.41 839.66 1250.15 839.66 Q1251.17 839.66 1251.87 840.275 Q1252.6 840.889 1252.6 841.955 Z" fill="#000000" fill-rule="nonzero" fill-opacity="1" /></svg>
